<?php echo '<?xml version="1.0" encoding="utf-8"?>'?>
<!-- Generator: Adobe Illustrator 26.5.0, SVG Export Plug-In . SVG Version: 6.00 Build 0)  -->
<svg class="logo" version="1.1" id="Layer_1" xmlns="http://www.w3.org/2000/svg" xmlns:xlink="http://www.w3.org/1999/xlink" x="0px" y="0px"
	 viewBox="0 0 410.5 281.8" style="enable-background:new 0 0 410.5 281.8;" xml:space="preserve">
<style type="text/css">
	.st0{display:none;}
	.st1{display:inline;}
</style>
<g id="Layer_1_00000172441783792083296710000008469649513280366264_" class="st0">
	
		<image style="display:inline;overflow:visible;enable-background:new    ;" width="2732" height="2048" xlink:href="28BC003069371A58.jpeg"  transform="matrix(0.2809 0 0 0.2809 -100.7515 -167.5344)">
	</image>
	<g class="st1">
		<path d="M-55.9,216.9c2.3,0.8,4.9,0.2,7.1-0.7c4.6-2,8.3-5.5,11.6-9.1c5-5.6,8.7-12.3,13-18.5c12.7-18.8,29.5-35.9,54.2-31.9
			c14.8,2.5,25.6,14.4,33.8,26.1c9.5,13.6,15.2,22.7,30.9,9c3.6-3.1,6.9-6.8,10.3-10.4c3.3-3.7,6.4-7.5,9.2-11.4
			c2.2-3.2,4.4-6.4,5.4-10.2c0-0.1,0.1-0.4,0.1-0.5c0,0,0,0,0,0.1c0,0.1,0,0,0.1,0.5l-0.1-1.9c0.5-2.2,1.2-4,2-6
			c2.9-6.5,7.6-12.2,13.6-16.1c3.9-2.4,8.1-4.8,13.1-4.1c9.5,1.8,9,13.6,9,21c0,3.5,0.2,7.8-0.2,11.4c-0.3,2.1-0.6,4.4-2.5,6.4
			c-2.8,2.9-7.1,1.8-9.6-0.6c-2.6-2-3.7-6.4-2.6-9.4c1.7-5.4,5.8-9.1,9.8-12.7c1.7-1.5,3.7-2.9,5.9-3.7c4-1.4,7.6-1.3,11.3-2.1
			c3.8-0.7,6.9-2.4,9.5-5c1.6-1.7,3.1-3.8,4.4-5.8c7.9-11.8,19-24.9,27.4-34c6.1-8.4,20.7-29,20.2-38.5c-3.1,1.7-5.6,7.3-7.2,11.2
			c-3.4,8.5-5.7,17.7-7,26.8c-0.6,4.5-1,9.4-0.3,13.7l0,0.5c-0.6,8.5,1.1,17.1,4.5,24.9c2.3,5,5.4,9.8,9.2,13.8
			c1.2,1.4,3,2.9,4.4,4.2c8.9,10.3,16.7,21.3,23.3,33.2c2.4,4.4,4.5,9.1,6.2,13.9c2.5,7.8,5.9,15.3,8,23.4c6.3,25.9,1.5,53.1-3,78.9
			l-0.5-0.1c2.5-16.2,4.6-32.6,4.7-49c0-9.8-0.8-19.7-3.5-29.2c-1.8-6.3-4.4-12.3-6.8-18.5c-6-18.8-18.2-35.3-30.7-49.9
			c-1.4-1.4-3.5-3-4.7-4.4c-0.9-0.9-2.5-2.7-3.2-3.7c-5.8-7.2-9.6-15.9-11.2-25c-0.8-4.3-1.1-8.6-0.8-13c-0.7-4.2-0.3-9.7,0.2-14.3
			c1.2-9.5,3.5-19,7-27.9c2.1-5.1,7.6-18,14.5-13c7.7,7.6-14.1,37.5-19.4,44.9c-4.9,5.4-9.6,10.9-14.2,16.5
			c-5.8,7-10.9,14.5-16.2,21.8l-1.8,2.1l-2.1,1.9c-2.9,2.4-6.4,3.8-10,4.5c-3.6,0.7-7.3,0.7-10.6,1.9c-4.2,1.6-14,10.6-12.8,15.5
			c0.4,1.5,1.9,2.9,3.4,3.1c0.7,0.1,1.2-0.5,1.5-1.3c1.2-4.3,0.7-8.9,0.8-13.3c0-3.6,0.1-7.3-0.6-10.8c-0.4-1.7-1-3.4-2.2-4.6
			c-3.6-2.9-8.6,0.4-12,2.3c-3.8,2.4-7,5.6-9.4,9.4c-1.9,2.7-3.6,7.1-4.4,9.5c0.2,1.1-0.1,2-0.3,3c-1.2,4-3.6,7.5-5.9,10.9
			c-3,4.1-6.2,8-9.6,11.8c-6.9,7.2-14,15.6-24.1,18c-11.2,2.1-17.5-9.8-23-17.4c-7.7-11.1-17.5-22.6-31.5-25.2
			c-23.4-4.1-39.9,12.3-52.3,30c-7.3,10.1-13.7,22.2-25.7,27.3c-2.4,0.9-5.1,1.4-7.6,0.4C-56.1,217.3-55.9,216.9-55.9,216.9
			L-55.9,216.9z"/>
	</g>
	<g class="st1">
		<path d="M244,4.7c12.2,37.6,35.1,115.5,26.9,152.9c-1.4,6-4.3,11.9-9.9,15c-4,2.6-8,1.3-7.7-4c0.3-5.2,2.2-9.9,3.8-14.7
			c2.3-6.2,4.9-12.1,7.5-18.1c10.8-23.7,22.7-46.8,35.4-69.5c6.2-11.1,13.5-22.4,19.8-33.5c5-9,10.5-18,13.6-27.8
			c0.2-0.8,0.3-1.6,0.3-2.1c0,0.1,0.2,0.4,0.3,0.5c0.3,0.4,1,0.7,1.5,0.6c0.1,0-0.1,0-0.4,0.2c-5.1,3.9-8.7,9.7-12,15.1
			c-6.3,10.9-10.7,23.1-11.8,35.6c-0.8,12.7,1.4,25.6,3.4,38.1c5.8,30.9,15,64.1,37.6,87c14.3,14.1,33.3,19.1,52.9,14.8
			c5.3-2.2,11.9-4.6,17.7-6.5c6-1.9,12.1-3.9,18.4-4.5c-3.1,0.4-6.2,1.2-9.2,2.1c-9,2.8-17.8,6.4-26.5,10.1
			c-6.4,1.5-13,2.2-19.6,1.8c-53.9-4-73-79-78.4-123.4c-3.1-20.4,1-39.8,11.4-57.5c2.5-4.3,5.3-8.5,8.6-12.3c2-2,3.9-4.4,6.8-5.4
			c1.2-0.3,2.6,0,3.5,1c2.9,3.7-2.7,13.8-4.4,17.6c-8.6,17.6-19.4,33.8-29.1,50.7c-9.5,16.9-18.6,34.1-27.2,51.5
			c-7,14.4-14.4,28.9-18.9,44.3c-0.5,1.9-1,4.1-0.7,5.7c0,0-0.1-0.1-0.3-0.2c2.3-0.7,5-2.8,6.5-5C281.1,137.8,253.1,37.5,244,4.7
			L244,4.7z"/>
	</g>
</g>
<g id="Layer_2_00000110462874921456315040000008160525795682882949_">
	<g>
		<g>
			<path d="M182.3,280.1c6.2-19.6,12.4-39.8,11.4-60.6c-0.9-19.5-7.2-38.4-15.7-55.9c-4.2-8.8-9-17.2-14-25.6
				c-4.8-8.1-9.7-16.2-13.7-24.8c-3.9-8.4-6.8-17.3-7.4-26.5c-0.7-10,1.1-19.9,4.1-29.4c1.5-4.7,3.3-9.4,5.3-13.9
				c0.9-2.1,1.8-4.4,3-6.4c0.8-1.2,2-2.8,3.4-3c-0.4,0,0.1,0,0.1,0c0.3,0.2,0.3,0.1,0.5,0.5c0.3,0.5,0.2,1.4,0.2,2
				c-0.2,2.1-1.1,4.3-1.9,6.2c-1.7,4.2-4.1,8.2-6.7,11.9c-5.6,8.1-12.2,15.7-18.7,23.2c-6.8,7.9-13.8,15.6-21,23.1
				c-3.3,3.4-6.6,7-10.2,10.1c-3.5,3-7.5,5.1-12,6.2c-4.6,1.1-9.4,1.6-13.8,3.6c-3.8,1.7-7.2,4.5-8.8,8.4c-1.6,3.9-0.7,8.2,2.2,11.2
				c2.7,2.9,7.1,4,10.6,1.7c3.4-2.3,4.3-6.5,4.3-10.4c0-3.8-0.7-7.6-1.6-11.2c-1.8-6.9-6-14.2-13.7-15.4c-4.8-0.7-9.4,1.2-13,4.2
				c-3.6,3-6,7.2-7.9,11.4c-3.9,8.5-7.1,17.3-12.6,25.1c-4.9,6.9-11.7,12.7-20,14.9c-3.8,1-7.8,1.1-11.6,0.2c-3.1-0.8-4.4,4-1.3,4.8
				c8.6,2.2,17.6-0.2,24.9-5c7.7-5,13.2-12.6,17.4-20.6c2.2-4.2,4.1-8.5,5.9-12.9c1.7-4.1,3.4-8.5,6.4-12c2.6-3.1,6.3-5.5,10.5-5.3
				c3,0.2,5.5,2,7.1,4.4c2,2.9,3,6.2,3.7,9.6c0.7,3.2,1.3,6.8,0.8,10.1c-0.2,1.5-0.7,3-1.8,3.8c-1,0.7-2.1,0.6-3,0.1
				c-2.7-1.5-3.6-4.8-2.2-7.5c1.7-3.2,5.1-5.1,8.4-6.1c4.7-1.5,9.7-1.8,14.4-3.5c9-3.3,15.5-11,21.9-17.7c7.1-7.5,14-15.1,20.7-22.9
				c6.5-7.5,13-15.1,18.6-23.3c2.6-3.8,5-7.8,6.7-12.1c1.5-3.7,3.7-8.9,1.6-12.8c-1-1.9-3.1-3.2-5.3-3c-2.1,0.1-4,1.4-5.4,2.9
				c-1.5,1.6-2.5,3.4-3.4,5.4c-1,2.3-2.1,4.6-3,7c-3.9,9.3-6.9,19-8.2,29c-1.2,9.7-0.4,19.4,2.3,28.7c5.4,18.2,16.6,33.8,25.7,50.2
				c9.3,16.8,17.2,34.5,20.7,53.5c1.7,9.5,2.1,19.1,1.1,28.7c-1,10.2-3.5,20.2-6.4,30c-1.4,4.8-2.9,9.6-4.4,14.4
				C176.5,281.8,181.4,283.1,182.3,280.1L182.3,280.1z"/>
		</g>
	</g>
	<g>
		<g>
			<path d="M161.8,4.6c15,7.4,26.1,21.4,35,35.5c11.3,18,19.6,37.8,25.8,58c3.3,10.6,5.9,21.5,8,32.4c1.9,10.2,3.4,20.7,3.7,31
				c0.1,4.6-0.1,10.2-3.9,13.3c-0.2,0.2-0.2,0,0,0.1c-0.2,0-0.3-0.2-0.5-0.3c-0.5-0.4-0.9-0.8-1.2-1.3c-0.7-0.9-1.1-1.9-1.4-3
				c-0.7-2.5-0.6-5,0.2-7.4c1.7-5.6,6-10.3,9.8-14.6c4-4.5,8.4-8.6,13-12.5c9.3-8,19.2-15.2,28.8-23c9.5-7.7,18.3-16.2,26.1-25.6
				c7.9-9.6,14.9-20,20.6-31.1c2.1-4,4.1-8,6.4-11.9c2.3-3.9,4.6-7.8,6.5-11.9c1.6-3.4,3.3-7.2,3.1-11c-0.2-3.8-2.9-7.5-7-7.4
				c-5.5,0.1-9.4,4.9-12,9.3c-3.3,5.5-4.8,11.5-5.9,17.7c-4.8,26.6-7.4,53.8-4.8,80.8c1.2,13.3,3.6,26.7,7.8,39.5
				c2,6,4.8,11.8,10,15.7c4.8,3.6,10.8,4.7,16.4,2.5c5.8-2.3,10.3-6.8,14.6-11c4.6-4.5,8.9-9.3,13-14.3c4.1-5,8-10.2,11.6-15.7
				c1.7-2.5,3.2-5.1,4.8-7.6c1.5-2.4,3.2-4.8,5.4-6.6c2.8-2.2,8-3.4,10.3-0.1c0.8,1.1,2.2,1.6,3.4,0.9c1.1-0.6,1.7-2.3,0.9-3.4
				c-3.1-4.5-9.1-5.4-14-3.4c-5.6,2.3-8.8,7.7-11.8,12.6c-6.7,10.9-14.6,21.1-23.4,30.4c-4.1,4.3-8.3,9-13.5,12.2
				c-2.4,1.5-5,2.5-7.8,2.4c-2.5-0.1-4.8-1.1-6.8-2.5c-4.9-3.5-7.2-9.5-8.9-15c-1.9-6.4-3.5-12.9-4.7-19.4
				c-4.9-26.4-4-53.7-0.3-80.1c0.9-6.7,2-13.5,3.4-20.1c1.2-5.5,3.1-11,6.7-15.5c1.3-1.7,3.1-3.5,5.3-3.8c-0.2,0,0.3,0,0.3,0
				c0,0,0.9,0.1,0.5,0c-0.5-0.1,0.3,0.2,0.5,0.3c0.6,0.3-0.1-0.2,0.3,0.3c0.1,0.1,0.4,0.6,0.1,0c0.1,0.2,0.2,0.3,0.3,0.5
				c0.1,0.1,0.2,0.5,0,0c0.1,0.2,0.1,0.3,0.2,0.5c0,0.1,0,0.2,0.1,0.4c0.2,0.6,0-0.6,0,0.1c0,0.3,0,0.6,0,1c0,0.2,0,0.4,0,0.6
				c0,0.1-0.1,0.8,0,0.2c-0.3,1.8-0.9,3.6-1.6,5.3c-3.1,7.7-8.5,15.1-12.3,22.7c-5.4,11-12,21.4-19.7,31
				c-7.8,9.7-16.5,18.4-26.1,26.2c-9.4,7.8-19.3,14.9-28.6,22.8c-4.6,3.9-9.1,8-13.3,12.5c-4.1,4.4-8.4,9.1-11,14.6
				c-2.5,5.3-3.3,11.5-0.4,16.9c1.3,2.4,3.8,5.2,6.8,5.1s5.4-3.2,6.6-5.6c2.5-4.8,2.4-10.4,2.1-15.7c-0.3-5.2-0.9-10.5-1.5-15.7
				c-1.5-10.9-3.5-21.8-6.3-32.5c-5.4-21.2-13-42-23.4-61.3c-8.6-16.1-19.5-32.1-34.3-43.2c-2.9-2.2-6-4.1-9.2-5.8
				C161.5-1.1,159,3.2,161.8,4.6L161.8,4.6z"/>
		</g>
	</g>
</g>
</svg>
