<svg width="134" height="120" viewBox="0 0 134 120" fill="none" xmlns="http://www.w3.org/2000/svg">
<g clip-path="url(#clip0_117_64)">
<path d="M90.9511 42.9602C89.9118 41.1278 88.4988 39.6862 86.7153 38.6287C84.9318 37.5713 82.9254 37.0426 80.6961 37.0426C78.4667 37.0426 76.4603 37.5713 74.6768 38.6287C72.8933 39.6862 71.4738 41.1311 70.4181 42.9602C69.3624 44.7927 68.8346 46.9141 68.8346 49.3245C68.8346 51.7349 69.3624 53.8136 70.4181 55.6427C71.4738 57.4751 72.8933 58.9102 74.6768 59.9512C76.4603 60.9922 78.4667 61.5144 80.6961 61.5144C82.9254 61.5144 84.9318 60.9955 86.7153 59.9512C88.4988 58.9102 89.9118 57.4719 90.9511 55.6427C91.9904 53.8103 92.5116 51.7053 92.5116 49.3245C92.5116 46.9436 91.9904 44.7927 90.9511 42.9602Z" fill="#7EC4C0"/>
<path d="M65.1005 37.8669C64.6841 37.4367 64.1497 37.2199 63.494 37.2199C62.8383 37.2199 62.3039 37.4432 61.8876 37.8899C61.4712 38.3365 61.2647 38.8717 61.2647 39.499V40.806C60.8549 40.274 60.3467 39.7551 59.7271 39.2527C58.9402 38.6123 58.0091 38.0836 56.9404 37.6665C55.8716 37.2495 54.711 37.0426 53.4619 37.0426C51.4096 37.0426 49.554 37.5713 47.8885 38.6287C46.2231 39.6862 44.9084 41.1311 43.9413 42.9602C42.9741 44.7927 42.4922 46.8976 42.4922 49.2785C42.4922 51.6593 42.9741 53.7676 43.9413 55.5967C44.9051 57.4292 46.2296 58.8741 47.9082 59.9282C49.5868 60.9856 51.4817 61.5144 53.5931 61.5144C54.6028 61.5144 55.5929 61.3436 56.5568 61.0021C57.5239 60.6605 58.3698 60.2205 59.0976 59.6852C59.8254 59.1499 60.4287 58.5621 60.904 57.9218C61.0417 57.7379 61.1565 57.5572 61.2614 57.3766V59.7739C61.2614 61.649 60.6516 63.1366 59.432 64.24C58.2124 65.3401 56.4289 65.8918 54.0816 65.8918C53.3964 65.8918 52.6685 65.7933 51.8981 65.6028C51.1244 65.4091 50.4195 65.1923 49.7802 64.9559C49.1409 64.7162 48.6885 64.5553 48.4196 64.4633C47.764 64.2236 47.1771 64.1809 46.6591 64.3287C46.1378 64.4765 45.7444 64.8804 45.4789 65.5339C45.269 66.01 45.2789 66.4862 45.5018 66.9624C45.7247 67.4385 46.1772 67.8556 46.8624 68.2136C47.1902 68.4828 47.7771 68.7488 48.6229 69.0181C49.4688 69.2874 50.3998 69.5173 51.4096 69.711C52.4194 69.9048 53.298 70 54.0389 70C56.1503 70 58.0878 69.6289 59.8582 68.8835C61.6253 68.138 63.0449 66.9689 64.1169 65.3762C65.1857 63.7835 65.7234 61.7377 65.7234 59.2353V39.4957C65.7234 38.8422 65.5136 38.2971 65.1005 37.8669Z" fill="#7EC4C0"/>
<path d="M3.5603 9.90428C8.17965 6.59409 13.5727 4.29207 19.3592 4.99811C24.1917 5.58922 28.8995 8.21963 32.1518 11.8155C37.2531 17.454 40.4102 25.0793 43.0592 32.12C43.7674 33.9984 44.4493 35.8932 45.0427 37.811C45.364 38.852 46.3082 39.6172 47.413 39.6205C58.0254 39.6402 68.6345 39.6566 79.2469 39.6763C80.7714 39.6763 82.2926 39.6829 83.8171 39.6829C84.9612 39.6829 85.8235 38.9046 86.1874 37.8734C89.0856 29.6636 91.9837 21.4571 94.8852 13.2473C95.4261 11.7203 94.0196 10.1276 92.5148 10.1309C86.1546 10.1407 79.7944 10.1539 73.4342 10.1637L43.0035 10.2163C40.6692 10.2195 38.3317 10.2228 35.9974 10.2294C32.8337 10.236 32.8271 15.1618 35.9974 15.1553C42.3576 15.1454 48.7178 15.1323 55.0781 15.1224L85.5088 15.0699C87.843 15.0666 90.1806 15.0633 92.5148 15.0568C91.7247 14.019 90.9346 12.978 90.1445 11.9403C87.2463 20.1501 84.3482 28.3566 81.4467 36.5664C82.2368 35.9622 83.027 35.3612 83.8171 34.757C73.2047 34.7373 62.5956 34.7209 51.9832 34.7012C50.4587 34.7012 48.9375 34.6946 47.413 34.6946L49.7833 36.504C47.9999 30.7145 45.6689 25.0136 42.9576 19.605C40.9512 15.6052 38.6398 11.6612 35.6269 8.33129C31.9288 4.24281 26.539 1.20519 21.0968 0.308676C13.8743 -0.876819 6.94367 1.44819 1.0785 5.65161C-1.47542 7.48075 0.980148 11.7531 3.5603 9.90428Z" fill="#7EC4C0"/>
<path d="M60.9597 41.2066C61.6206 41.2066 62.1563 40.7376 62.1563 40.159C62.1563 39.5805 61.6206 39.1115 60.9597 39.1115C60.2988 39.1115 59.7631 39.5805 59.7631 40.159C59.7631 40.7376 60.2988 41.2066 60.9597 41.2066Z" fill="#7EC4C0" stroke="#7EC4C0" stroke-miterlimit="10"/>
</g>
<g clip-path="url(#clip1_117_64)">
<path d="M17.5163 86C18.9066 86 20.2029 86.242 21.4015 86.7296C22.6002 87.2171 23.6525 87.843 24.5515 88.6106C25.4505 89.3782 26.1544 90.1942 26.6597 91.0552C27.1649 91.9162 27.4193 92.7426 27.4193 93.5241L26.6597 92.3968V88.0228C26.6597 87.6148 26.7921 87.269 27.0639 86.9889C27.3322 86.7054 27.6702 86.5671 28.0813 86.5671C28.5239 86.5671 28.8723 86.7088 29.1232 86.9889C29.3741 87.2724 29.503 87.6182 29.503 88.0228V108.43C29.503 110.906 28.9803 113.008 27.9385 114.73C26.8966 116.456 25.4819 117.763 23.6978 118.658C21.9138 119.55 19.8823 120 17.6069 120C16.5023 120 15.3385 119.858 14.1224 119.578C12.9063 119.295 11.8644 118.935 10.9933 118.496C10.1222 118.057 9.64131 117.604 9.54723 117.134C9.29286 116.85 9.17439 116.577 9.19181 116.311C9.20575 116.044 9.34165 115.816 9.59601 115.629C9.88174 115.412 10.2023 115.387 10.5682 115.56C10.9306 115.733 11.4602 115.961 12.1571 116.241C12.4429 116.335 12.861 116.477 13.4116 116.663C13.9621 116.85 14.6102 117.016 15.3559 117.158C16.0981 117.299 16.8786 117.369 17.701 117.369C20.513 117.369 22.7082 116.563 24.2867 114.948C25.8652 113.333 26.6562 111.224 26.6562 108.624V104.108L27.1789 104.25C26.8931 105.346 26.4192 106.318 25.7572 107.165C25.0951 108.012 24.3285 108.724 23.4574 109.305C22.5898 109.886 21.642 110.325 20.614 110.623C19.5861 110.92 18.5686 111.069 17.5581 111.069C15.3768 111.069 13.4116 110.519 11.6588 109.423C9.90614 108.327 8.52279 106.836 7.51228 104.955C6.50525 103.071 6 100.924 6 98.5101C6 96.0966 6.50525 93.9874 7.51576 92.0925C8.52627 90.1942 9.89917 88.7074 11.6379 87.6251C13.3767 86.5394 15.335 86 17.5163 86ZM17.8473 88.6798C16.1086 88.6798 14.5545 89.1016 13.1781 89.9487C11.8017 90.7959 10.7285 91.9646 9.95492 93.4514C9.18136 94.9417 8.79458 96.6256 8.79458 98.5067C8.79458 100.388 9.18136 102.082 9.95492 103.586C10.7285 105.09 11.8017 106.276 13.1781 107.137C14.551 108.002 16.1086 108.43 17.8473 108.43C19.5861 108.43 21.0844 108.009 22.4434 107.161C23.8024 106.314 24.8756 105.146 25.6666 103.659C26.4576 102.168 26.8513 100.453 26.8513 98.5101C26.8513 96.5669 26.4576 94.8587 25.6666 93.3857C24.8756 91.9127 23.8024 90.7613 22.4434 89.928C21.0844 89.0981 19.5513 88.6832 17.8473 88.6832V88.6798Z" fill="#7EC4C0"/>
<path d="M58.6022 98.5551C58.6022 100.937 58.0795 103.078 57.0376 104.973C55.9958 106.871 54.5741 108.358 52.7726 109.44C50.9711 110.522 48.9187 111.062 46.612 111.062C44.3052 111.062 42.34 110.522 40.521 109.44C38.7056 108.358 37.2665 106.871 36.2072 104.973C35.1479 103.078 34.6183 100.937 34.6183 98.5551C34.6183 96.1727 35.1479 93.9943 36.2072 92.1133C37.2665 90.2323 38.7021 88.742 40.521 87.6459C42.3365 86.5498 44.3679 86 46.612 86C48.856 86 50.9711 86.5498 52.7726 87.6459C54.5741 88.742 55.9958 90.2323 57.0376 92.1133C58.0795 93.9943 58.6022 96.1416 58.6022 98.5551ZM55.7588 98.5551C55.7588 96.6429 55.3651 94.9417 54.5741 93.4514C53.7831 91.9646 52.7029 90.7959 51.3265 89.9487C49.9501 89.1016 48.3786 88.6798 46.612 88.6798C44.8453 88.6798 43.3574 89.1016 41.9671 89.9487C40.5768 90.7959 39.4792 91.9646 38.6743 93.4514C37.8693 94.9417 37.4651 96.6429 37.4651 98.5551C37.4651 100.467 37.8693 102.161 38.6743 103.634C39.4792 105.107 40.5768 106.276 41.9671 107.137C43.3574 108.002 44.9046 108.43 46.612 108.43C48.3194 108.43 49.9536 107.998 51.3265 107.137C52.6994 106.276 53.7831 105.107 54.5741 103.634C55.3651 102.161 55.7588 100.467 55.7588 98.5551Z" fill="#7EC4C0"/>
<path d="M74.7598 86C76.1501 86 77.4463 86.242 78.645 86.7296C79.8437 87.2171 80.896 87.843 81.795 88.6106C82.694 89.3782 83.3979 90.1942 83.9031 91.0552C84.4084 91.9162 84.6628 92.7426 84.6628 93.5241L83.9031 92.3968V88.0228C83.9031 87.6148 84.0355 87.269 84.3073 86.9889C84.5756 86.7054 84.9136 86.5671 85.3248 86.5671C85.7673 86.5671 86.1158 86.7088 86.3667 86.9889C86.6176 87.2724 86.7465 87.6182 86.7465 88.0228V108.43C86.7465 110.906 86.2238 113.008 85.182 114.73C84.1401 116.456 82.7254 117.763 80.9413 118.658C79.1572 119.55 77.1258 120 74.8504 120C73.7458 120 72.582 119.858 71.3659 119.578C70.1498 119.295 69.1079 118.935 68.2368 118.496C67.3656 118.057 66.8848 117.604 66.7907 117.134C66.5363 116.85 66.4179 116.577 66.4353 116.311C66.4492 116.044 66.5851 115.816 66.8395 115.629C67.1252 115.412 67.4458 115.387 67.8117 115.56C68.1741 115.733 68.7037 115.961 69.4006 116.241C69.6863 116.335 70.1045 116.477 70.655 116.663C71.2056 116.85 71.8537 117.016 72.5994 117.158C73.3416 117.299 74.1221 117.369 74.9445 117.369C77.7565 117.369 79.9517 116.563 81.5302 114.948C83.1087 113.333 83.8997 111.224 83.8997 108.624V104.108L84.4223 104.25C84.1366 105.346 83.6627 106.318 83.0006 107.165C82.3386 108.012 81.572 108.724 80.7009 109.305C79.8297 109.886 78.8854 110.325 77.8575 110.623C76.8296 110.92 75.8121 111.069 74.8016 111.069C72.6203 111.069 70.655 110.519 68.9023 109.423C67.1496 108.327 65.7663 106.836 64.7557 104.955C63.7452 103.074 63.24 100.927 63.24 98.5136C63.24 96.1001 63.7452 93.9908 64.7557 92.096C65.7663 90.1977 67.1392 88.7109 68.8779 87.6286C70.6132 86.5463 72.575 86.0069 74.7528 86.0069L74.7598 86ZM75.0908 88.6798C73.352 88.6798 71.7979 89.1016 70.4216 89.9487C69.0452 90.7959 67.972 91.9646 67.1984 93.4514C66.4248 94.9417 66.0381 96.6256 66.0381 98.5067C66.0381 100.388 66.4248 102.082 67.1984 103.586C67.972 105.09 69.0452 106.276 70.4216 107.137C71.7945 108.002 73.352 108.43 75.0908 108.43C76.8296 108.43 78.3279 108.009 79.6869 107.161C81.0458 106.314 82.1191 105.146 82.9101 103.659C83.701 102.168 84.0948 100.453 84.0948 98.5101C84.0948 96.5669 83.701 94.8587 82.9101 93.3857C82.1191 91.9127 81.0458 90.7613 79.6869 89.928C78.3279 89.0981 76.7947 88.6832 75.0908 88.6832V88.6798Z" fill="#7EC4C0"/>
<path d="M95.6599 110.595C95.2174 110.595 94.862 110.453 94.5937 110.173C94.3254 109.89 94.1895 109.561 94.1895 109.184V88.1161C94.1895 87.7392 94.3323 87.4108 94.6146 87.1272C94.9003 86.8437 95.2453 86.7054 95.6564 86.7054C96.0676 86.7054 96.4056 86.8471 96.6739 87.1272C96.9422 87.4108 97.0781 87.7392 97.0781 88.1161V95.1699L96.3673 95.3117C96.4614 94.2156 96.7366 93.1264 97.1966 92.0441C97.6531 90.9619 98.2768 89.9695 99.0678 89.0566C99.8553 88.1473 100.796 87.4108 101.887 86.8471C102.977 86.2835 104.2 86 105.559 86C106.127 86 106.681 86.1176 107.218 86.3527C107.755 86.5878 108.023 86.9716 108.023 87.5041C108.023 87.9744 107.898 88.334 107.643 88.5864C107.389 88.8388 107.089 88.9633 106.744 88.9633C106.458 88.9633 106.152 88.8838 105.821 88.7282C105.49 88.5726 105.054 88.493 104.518 88.493C103.632 88.493 102.747 88.7524 101.862 89.2676C100.977 89.7862 100.172 90.4812 99.4441 91.3595C98.7158 92.2378 98.1409 93.2163 97.7158 94.2986C97.2907 95.3809 97.0746 96.4701 97.0746 97.5662V109.181C97.0746 109.558 96.9318 109.886 96.6495 110.17C96.3673 110.453 96.0328 110.591 95.653 110.591L95.6599 110.595Z" fill="#7EC4C0"/>
<path d="M134 98.5551C134 100.937 133.477 103.078 132.435 104.973C131.394 106.871 129.972 108.358 128.17 109.44C126.369 110.522 124.317 111.062 122.01 111.062C119.703 111.062 117.738 110.522 115.919 109.44C114.103 108.358 112.664 106.871 111.605 104.973C110.546 103.078 110.016 100.937 110.016 98.5551C110.016 96.1727 110.546 93.9943 111.605 92.1133C112.664 90.2323 114.1 88.742 115.919 87.6459C117.734 86.5498 119.766 86 122.01 86C124.254 86 126.369 86.5498 128.17 87.6459C129.972 88.742 131.394 90.2323 132.435 92.1133C133.477 93.9943 134 96.1416 134 98.5551ZM131.157 98.5551C131.157 96.6429 130.763 94.9417 129.972 93.4514C129.181 91.9646 128.101 90.7959 126.724 89.9487C125.351 89.1016 123.776 88.6798 122.01 88.6798C120.243 88.6798 118.755 89.1016 117.365 89.9487C115.975 90.7959 114.877 91.9646 114.072 93.4514C113.267 94.9417 112.863 96.6429 112.863 98.5551C112.863 100.467 113.267 102.161 114.072 103.634C114.877 105.107 115.975 106.276 117.365 107.137C118.755 108.002 120.302 108.43 122.01 108.43C123.717 108.43 125.351 107.998 126.724 107.137C128.097 106.276 129.181 105.107 129.972 103.634C130.763 102.161 131.157 100.467 131.157 98.5551Z" fill="#7EC4C0"/>
</g>
<defs>
<clipPath id="clip0_117_64">
<rect width="95" height="70" fill="white"/>
</clipPath>
<clipPath id="clip1_117_64">
<rect width="128" height="34" fill="white" transform="translate(6 86)"/>
</clipPath>
</defs>
</svg>
